<mxfile host="app.diagrams.net" modified="2023-11-27T13:39:04.114Z" agent="Mozilla/5.0 (Macintosh; Intel Mac OS X 10_15_7) AppleWebKit/537.36 (KHTML, like Gecko) Chrome/116.0.0.0 Safari/537.36" version="22.1.4" etag="hdyGD0W7HhtNuRP6_xsL" type="github">
  <diagram name="Page-1" id="KNC-e1-UlD-3fRBGL87p">
    <mxGraphModel>
      <root>
        <mxCell id="0" />
        <mxCell id="1" parent="0" />
      </root>
    </mxGraphModel>
  </diagram>
</mxfile>
